<svg xmlns="http://www.w3.org/2000/svg" version="1.1" xmlns:xlink="http://www.w3.org/1999/xlink" xmlns:svgjs="http://svgjs.dev/svgjs" width="1500" height="1500" viewBox="0 0 1500 1500"><rect width="1500" height="1500" fill="#ffffff"></rect><g transform="matrix(0.6666666666666666,0,0,0.6666666666666666,249.39395007145686,594.9468051845793)"><svg viewBox="0 0 396 122" data-background-color="#fafafa" preserveAspectRatio="xMidYMid meet" height="462" width="1500" xmlns="http://www.w3.org/2000/svg" xmlns:xlink="http://www.w3.org/1999/xlink"><g id="tight-bounds" transform="matrix(1,0,0,1,0.23999577170309294,0.41717456974456013)"><svg viewBox="0 0 395.52 121.16564240391715" height="121.16564240391715" width="395.52"><g><svg viewBox="0 0 624.0737709324194 191.18198665670923" height="121.16564240391715" width="395.52"><g transform="matrix(1,0,0,1,0,56.014983615687676)"><svg viewBox="0 0 395.52 79.15201942533388" height="79.15201942533388" width="395.52"><g id="textblocktransform"><svg viewBox="0 0 395.52 79.15201942533388" height="79.15201942533388" width="395.52" id="textblock"><g><svg viewBox="0 0 395.52 79.15201942533388" height="79.15201942533388" width="395.52"><g transform="matrix(1,0,0,1,0,0)"><svg width="395.52" viewBox="1.71 -36.84 240.79999999999998 48.29" height="79.15201942533388" data-palette-color="#130912"><g class="wordmark-text-0" data-fill-palette-color="primary" id="text-0"><path d="M22.8-5.54L22.8-2.49Q20.7-1.2 18.27-0.29 15.84 0.61 13.31 0.61L13.31 0.61Q10.28 0.61 7.63-0.74 4.98-2.1 3.34-4.86 1.71-7.62 1.71-11.79L1.71-11.79Q1.71-15.7 3.22-18.6 4.74-21.51 7.4-23.11 10.06-24.71 13.45-24.71L13.45-24.71Q18.12-24.71 20.46-21.81 22.8-18.92 22.8-14.45L22.8-14.45Q22.8-14.21 22.8-13.81 22.8-13.4 22.75-13.06L22.75-13.06 6.54-13.06Q6.54-11.16 6.95-9.27 7.35-7.37 8.3-5.83 9.25-4.3 10.86-3.37 12.48-2.44 14.89-2.44L14.89-2.44Q17.04-2.44 19.08-3.43 21.12-4.42 22.8-5.54L22.8-5.54ZM6.81-15.31L17.8-15.31 17.8-16.41Q17.8-18.87 16.61-20.56 15.43-22.24 12.94-22.24L12.94-22.24Q10.47-22.24 8.74-20.39 7.01-18.53 6.81-15.31L6.81-15.31ZM51.85-1.95L51.85 0 40.82 0 40.82-1.95 42.92-2.1Q43.36-2.15 43.66-2.44 43.97-2.73 43.97-3.2L43.97-3.2 43.97-16.21Q43.97-18.58 42.87-19.81 41.77-21.04 39.16-21.04L39.16-21.04Q37.74-21.04 36.34-20.64 34.93-20.24 33.66-19.6L33.66-19.6 33.66-3.2Q33.66-2.17 34.71-2.1L34.71-2.1 36.81-1.95 36.81 0 25.51 0 25.51-1.95 27.95-2.1Q29-2.17 29-3.2L29-3.2 29-20.56 25.51-20.56 25.51-22.19 31.61-24.1 33.66-24.1 33.66-21.61Q35.76-22.8 37.97-23.75 40.18-24.71 41.92-24.71L41.92-24.71Q45.19-24.71 46.9-22.67 48.61-20.63 48.61-16.99L48.61-16.99 48.61-3.2Q48.61-2.73 48.91-2.44 49.22-2.15 49.66-2.1L49.66-2.1 51.85-1.95ZM78.8-24.1L78.8-22.14 76.14-21.85 67.4 0 64.16 0 56.1-21.85 53.34-22.14 53.34-24.1 64.4-24.1 64.4-22.14 62.01-22Q61.2-21.92 61.2-21.19L61.2-21.19Q61.2-21.09 61.25-20.9L61.25-20.9 66.84-5.25 72.99-20.9Q73.07-21.04 73.07-21.22L73.07-21.22Q73.07-21.95 72.31-22L72.31-22 70.06-22.14 70.06-24.1 78.8-24.1ZM105.29-24.1L105.29-22.14 102.68-21.85 93.08 1.54Q92.77 2.34 92.09 3.85 91.42 5.35 90.51 6.92 89.59 8.5 88.54 9.55L88.54 9.55Q87.64 10.45 86.55 10.95 85.47 11.45 84.2 11.45L84.2 11.45Q82.41 11.45 81.47 10.58 80.53 9.72 80.53 8.59L80.53 8.59Q80.53 6.93 82.15 5.59L82.15 5.59 86.83 7.74Q87.66 6.91 88.49 5.49 89.32 4.08 89.99 2.56 90.67 1.05 91.03-0.05L91.03-0.05 82.54-21.85 79.78-22.14 79.78-24.1 90.84-24.1 90.84-22.14 88.44-22Q87.64-21.92 87.64-21.19L87.64-21.19Q87.64-21 87.69-20.9L87.69-20.9 93.5-6.15 99.43-20.9Q99.5-21.04 99.5-21.22L99.5-21.22Q99.5-21.95 98.75-22L98.75-22 96.38-22.14 96.38-24.1 105.29-24.1Z" fill="#000000" data-fill-palette-color="primary"></path><path d="M145.99-7.25L145.99-7.25Q145.99-3.56 143.45-1.48 140.91 0.61 136.44 0.61L136.44 0.61Q134.14 0.61 132.2 0.13 130.26-0.34 129.51-0.66L129.51-0.66 129.51-7.3 132.05-7.3 132.66-3.05Q133.41-2.56 134.52-2.11 135.63-1.66 137.1-1.66L137.1-1.66Q139.25-1.66 140.42-2.86 141.59-4.05 141.59-5.54L141.59-5.54Q141.59-7.52 140.18-8.53 138.76-9.55 136.15-10.79L136.15-10.79 135.49-11.11Q132.75-12.4 131.3-13.81 129.85-15.21 129.85-17.46L129.85-17.46Q129.85-20.8 132.19-22.75 134.54-24.71 138.86-24.71L138.86-24.71Q141.05-24.71 142.78-24.3 144.5-23.9 145.25-23.56L145.25-23.56 145.25-17.65 142.64-17.65 142.25-21.14Q141.71-21.56 140.66-21.92 139.61-22.29 138.44-22.29L138.44-22.29Q136.39-22.29 135.39-21.35 134.39-20.41 134.39-18.95L134.39-18.95Q134.39-17.26 135.6-16.27 136.81-15.28 139.98-13.84L139.98-13.84Q142.59-12.65 144.29-11.17 145.99-9.69 145.99-7.25ZM172.3-1.95L172.3 0 164.9 0 164.24-2.95Q164.24-2.95 163.5-2.42 162.76-1.88 161.54-1.17 160.31-0.46 158.84 0.07 157.36 0.61 155.9 0.61L155.9 0.61Q153.19 0.61 151.29-1.2 149.4-3 149.4-6.15L149.4-6.15Q149.4-7.54 149.9-8.74 150.4-9.94 151.9-11.02 153.41-12.11 156.37-13.15 159.34-14.18 164.24-15.26L164.24-15.26 164.24-17.41Q164.24-22.34 159.58-22.34L159.58-22.34Q158.29-22.34 157.35-22.09 156.41-21.85 156.04-21.7L156.04-21.7 156.04-17.36 152.4-17.36Q151.72-17.36 151.13-17.61 150.55-17.87 150.55-18.8L150.55-18.8Q150.55-20.85 152.11-22.16 153.67-23.46 156.08-24.08 158.48-24.71 160.95-24.71L160.95-24.71Q164.05-24.71 165.76-23.74 167.47-22.78 168.15-21.08 168.83-19.38 168.83-17.21L168.83-17.21 168.83-3.2Q168.83-2.73 169.14-2.44 169.45-2.15 169.88-2.1L169.88-2.1 172.3-1.95ZM164.24-4.71L164.24-4.71 164.24-13.35Q160.88-12.52 158.89-11.68 156.9-10.84 155.92-10 154.94-9.16 154.64-8.29 154.33-7.42 154.33-6.49L154.33-6.49Q154.33-4.96 155.32-3.65 156.31-2.34 158.09-2.34L158.09-2.34Q159.09-2.34 160.17-2.7 161.24-3.05 162.17-3.53 163.1-4 163.67-4.36 164.24-4.71 164.24-4.71ZM186.63-1.95L186.63 0 174.47 0 174.47-1.95 177.13-2.1Q177.47-2.1 177.85-2.47 178.23-2.83 178.23-3.15L178.23-3.15 178.23-33.25 174.42-33.25 174.42-34.91 180.82-36.84 182.87-36.84 182.87-3.15Q182.87-2.83 183.24-2.47 183.6-2.1 183.92-2.1L183.92-2.1 186.63-1.95ZM213.46-12.01L213.46-12.01Q213.46-8.47 211.99-5.6 210.53-2.73 207.86-1.06 205.18 0.61 201.52 0.61L201.52 0.61Q197.88 0.61 195.22-1.05 192.56-2.71 191.12-5.57 189.68-8.42 189.68-12.01L189.68-12.01Q189.68-15.58 191.13-18.46 192.58-21.34 195.28-23.02 197.98-24.71 201.67-24.71L201.67-24.71Q205.4-24.71 208.04-23 210.68-21.29 212.07-18.41 213.46-15.53 213.46-12.01ZM208.26-12.06L208.26-12.06Q208.26-14.79 207.54-17.16 206.82-19.53 205.34-21 203.86-22.46 201.62-22.46L201.62-22.46Q199.3-22.46 197.82-21 196.34-19.53 195.64-17.16 194.93-14.79 194.93-12.06L194.93-12.06Q194.93-9.35 195.65-6.97 196.37-4.59 197.85-3.13 199.32-1.66 201.57-1.66L201.57-1.66Q203.86-1.66 205.34-3.13 206.82-4.59 207.54-6.96 208.26-9.33 208.26-12.06ZM242.51-1.95L242.51 0 231.47 0 231.47-1.95 233.57-2.1Q234.01-2.15 234.32-2.44 234.62-2.73 234.62-3.2L234.62-3.2 234.62-16.21Q234.62-18.58 233.52-19.81 232.43-21.04 229.81-21.04L229.81-21.04Q228.4-21.04 226.99-20.64 225.59-20.24 224.32-19.6L224.32-19.6 224.32-3.2Q224.32-2.17 225.37-2.1L225.37-2.1 227.47-1.95 227.47 0 216.17 0 216.17-1.95 218.61-2.1Q219.66-2.17 219.66-3.2L219.66-3.2 219.66-20.56 216.17-20.56 216.17-22.19 222.27-24.1 224.32-24.1 224.32-21.61Q226.42-22.8 228.63-23.75 230.84-24.71 232.57-24.71L232.57-24.71Q235.84-24.71 237.55-22.67 239.26-20.63 239.26-16.99L239.26-16.99 239.26-3.2Q239.26-2.73 239.57-2.44 239.87-2.15 240.31-2.1L240.31-2.1 242.51-1.95Z" fill="#000000" data-fill-palette-color="accent"></path></g></svg></g></svg></g></svg></g></svg></g><g transform="matrix(1,0,0,1,432.8917842757102,0)"><svg viewBox="0 0 191.18198665670923 191.18198665670923" height="191.18198665670923" width="191.18198665670923"><g><svg></svg></g><g id="icon-0"><svg viewBox="0 0 191.18198665670923 191.18198665670923" height="191.18198665670923" width="191.18198665670923"><g><path d="M0 95.591c0-52.793 42.798-95.591 95.591-95.591 52.793 0 95.591 42.798 95.591 95.591 0 52.793-42.798 95.591-95.591 95.591-52.793 0-95.591-42.798-95.591-95.591zM95.591 184.044c48.851 0 88.453-39.602 88.453-88.453 0-48.851-39.602-88.453-88.453-88.453-48.851 0-88.453 39.602-88.453 88.453 0 48.851 39.602 88.453 88.453 88.453z" data-fill-palette-color="accent" fill="#000000" stroke="transparent"></path></g><g transform="matrix(1,0,0,1,41.69044171314917,41.6872431735511)"><svg viewBox="0 0 107.80110323041089 107.80750030960702" height="107.80750030960702" width="107.80110323041089"><g><svg xmlns="http://www.w3.org/2000/svg" xmlns:xlink="http://www.w3.org/1999/xlink" version="1.1" x="0" y="0" viewBox="1 0.9963208269834449 62 62.00367917301656" style="enable-background:new 0 0 64 64;" xml:space="preserve" height="107.80750030960702" width="107.80110323041089" class="icon-dxe-0" data-fill-palette-color="accent" id="dxe-0"><g fill="#e77917" data-fill-palette-color="accent"><path d="M18 14H7C3.691 14 1 16.691 1 20V57C1 60.309 3.691 63 7 63H18A1 1 0 0 0 19 62V58A1 1 0 0 0 18 57H8C7.448 57 7 56.551 7 56H19V54H7V53H19V51H7V50H19V48H7V47H19V45H7V44H19V42H7V41H19V39H7V38H19V36H7V35H19V33H7V32H19V30H7V29H19V27H7V26H19V24H7V23H19V21H7C7 20.449 7.448 20 8 20H18A1 1 0 0 0 19 19V15A1 1 0 0 0 18 14M17 18H8C6.346 18 5 19.346 5 21V56C5 57.654 6.346 59 8 59H17V61H7C4.794 61 3 59.206 3 57V20C3 17.794 4.794 16 7 16H17z" fill="#000000" data-fill-palette-color="accent"></path><path d="M54 48C50.691 48 48 50.691 48 54S50.691 60 54 60 60 57.309 60 54 57.309 48 54 48M54 58C51.794 58 50 56.206 50 54S51.794 50 54 50 58 51.794 58 54 56.206 58 54 58" fill="#000000" data-fill-palette-color="accent"></path><path d="M53.104 45.047L47.913 34.882 54.977 2.211A1 1 0 0 0 53.108 1.545L42 23.301 30.891 1.545A1 1 0 0 0 29.022 2.211L36.086 34.882 30.895 45.047C25.544 44.479 21 48.741 21 54 21 58.962 25.037 63 30 63S39 58.962 39 54A9.03 9.03 0 0 0 36.646 47.944L39.487 42.264A4.8 4.8 0 0 1 42.002 39.961 4.83 4.83 0 0 1 44.514 42.264L47.355 47.944A9.02 9.02 0 0 0 45 54C45 58.962 49.037 63 54 63S63 58.962 63 54C63 48.741 58.452 44.479 53.104 45.047M51.401 9.289L46.476 32.067 43.123 25.5zM34.536 47.69C34.338 48.087 34.425 48.568 34.751 48.871A6.93 6.93 0 0 1 37 54C37 57.86 33.859 61 30 61S23 57.86 23 54 26.141 47 30 47C30.414 47 30.832 47.04 31.279 47.123 31.711 47.202 32.15 46.989 32.351 46.594L36.754 37.972 37.022 39.212A1 1 0 0 0 37.53 39.883C37.791 40.021 38.097 40.036 38.371 39.929 38.502 39.877 38.637 39.853 38.77 39.813A7 7 0 0 0 37.697 41.37zM54 61C50.141 61 47 57.86 47 54 47 52.037 47.799 50.215 49.249 48.871 49.575 48.569 49.662 48.088 49.464 47.69L46.303 41.369C45.116 38.996 42.674 37.588 40.142 37.588 39.678 37.588 39.212 37.635 38.749 37.732L32.599 9.288 51.649 46.594C51.849 46.987 52.285 47.202 52.721 47.123A7 7 0 0 1 54 47C57.859 47 61 50.14 61 54S57.859 61 54 61" fill="#000000" data-fill-palette-color="accent"></path><path d="M30 48C26.691 48 24 50.691 24 54S26.691 60 30 60 36 57.309 36 54 33.309 48 30 48M30 58C27.794 58 26 56.206 26 54S27.794 50 30 50 34 51.794 34 54 32.206 58 30 58" fill="#000000" data-fill-palette-color="accent"></path><rect x="41" y="34" width="2" height="2" fill="#000000" data-fill-palette-color="accent"></rect></g></svg></g></svg></g></svg></g></svg></g></svg></g><defs></defs></svg><rect width="395.52" height="121.16564240391715" fill="none" stroke="none" visibility="hidden"></rect></g></svg></g></svg>